<?xml version="1.0" encoding="utf-8"?>
<!-- Svg Vector Icons : http://www.onlinewebfonts.com/icon -->
<!DOCTYPE svg PUBLIC "-//W3C//DTD SVG 1.1//EN" "http://www.w3.org/Graphics/SVG/1.1/DTD/svg11.dtd">
<svg version="1.1" xmlns="http://www.w3.org/2000/svg" xmlns:xlink="http://www.w3.org/1999/xlink" x="0px" y="0px" viewBox="0 0 1000 1000" enable-background="new 0 0 1000 1000" xml:space="preserve">
<metadata> Svg Vector Icons : http://www.onlinewebfonts.com/icon </metadata>
<g><path d="M482.6,535c-22.9,0-105.6,0.7-105.6,0.7v187.8L109.2,430.1L377,136.3v189.2c0,0,87.4-1,105.6-0.3c247,7.7,418.5,288.9,419.6,420.4C826.7,648.7,628.4,535,482.6,535L482.6,535z M447,255.6V49.3c1.2-10.5-1.6-21-9.6-29c-13.8-13.6-36.3-13.6-50.1,0L37.9,403.5c-7.4,7.3-10.5,16.8-10,26.6c-0.5,9.4,2.7,19.2,10,26.6l347.4,380.8c6.4,8,15.8,13.3,26.6,13.3c9.9,0,18.8-4.2,25.1-10.8c0.1,0,0.2,0,0.3-0.3c8-7.7,10.8-18.5,9.6-28.7c0,0,0.6-194.1,0.6-206c230.8,0,439.6,166.1,481,385c27.9-64.3,43.6-135,43.6-209.5C972.2,490.6,737,255.6,447,255.6L447,255.6z"/></g>
</svg>